<?xml version="1.0" encoding="UTF-8"?>
<svg xmlns="http://www.w3.org/2000/svg" version="1.1" viewBox="0 0 24 24"><path d="M10.81 6.22 8.78 3h1.18l1.44 2.29zm7.69 8.28c0 3.584-2.916 6.5-6.5 6.5s-6.5-2.916-6.5-6.5a6.49 6.49 0 0 1 2.73-5.284L4.3 3h1.19l3.595 5.699a6.4 6.4 0 0 1 1.726-.585L14.04 3h1.18l-3.158 5.003a6.45 6.45 0 0 1 2.853.696L18.51 3h1.19l-3.93 6.216A6.49 6.49 0 0 1 18.5 14.5m-1 0c0-3.033-2.468-5.5-5.5-5.5s-5.5 2.467-5.5 5.5S8.968 20 12 20s5.5-2.467 5.5-5.5m-1.655-1.865.47 1.47-1.9 1.39.7 2.18-1.28.93-1.86-1.34-1.88 1.36-1.26-.92.71-2.21-1.86-1.36.49-1.5 2.3-.01.74-2.25h1.53l.74 2.25zm-.58 1-2.5-.01-.79-2.38-.78 2.38-2.5.01 2.02 1.48-.77 2.38 2.03-1.47 2.04 1.47-.77-2.38z" style="fill: #ffffff;"/></svg>
