<?xml version="1.0" encoding="UTF-8"?>
<svg xmlns="http://www.w3.org/2000/svg" version="1.1" viewBox="0 0 24 24"><path d="M20.99 10.5c-.101-2.812-4.01-5-8.99-5s-8.889 2.188-8.99 5H3v3l.001.024C3.135 16.314 7.088 18.5 12 18.5s8.865-2.186 9-5v-3zM12 6.5c4.337 0 8 1.882 8 4.11 0 .122-.016.24-.037.359C18.441 9.327 15.403 8.27 12 8.27s-6.441 1.057-7.963 2.699A2 2 0 0 1 4 10.611C4 8.382 7.663 6.5 12 6.5m7.498 5.503c-1.138 1.567-4.108 2.72-7.498 2.72s-6.36-1.153-7.498-2.72C5.653 10.385 8.655 9.27 12 9.27s6.347 1.115 7.498 2.733m.502 1.48c-.114 2.215-3.7 4.017-8 4.017-4.305 0-7.894-1.805-8-4v-.518c1.482 1.64 4.47 2.74 8 2.74s6.518-1.1 8-2.74zm-11.224-2.43.448.894-2 1-.448-.894zM12 10.5h1v1h-1zm-2 2h1v1h-1zm4.082.493-.164-.986 3-.5.164.986z" style="fill: #ffffff;"/></svg>
