<?xml version="1.0" encoding="UTF-8"?>
<svg xmlns="http://www.w3.org/2000/svg" viewBox="0 0 24 24"><path d="M6.9 11.53l.5-.867 3.465 2.002-.5.865zM6.534 10.163l3.004-5.197.865.5-3.004 5.197zM10.864 12.664l3.004-5.196.865.5-3.004 5.196z" style="fill: #ffffff;"/><path d="M18.6 14.09c.262-.811.4-1.686.4-2.593 0-2.05-.7-3.809-1.947-5.056a6.361 6.361 0 0 0-1.86-1.278L15.865 4l-3.463-2L10.4 5.465l.867.5 1.499-2.6 1.732 1.001-1.5 2.6.866.5.815-1.413c.632.278 1.204.633 1.666 1.096C17.383 8.186 18 9.679 18 11.497a7.43 7.43 0 0 1-.42 2.5H13L12 18H8v-2.407l1.868 1.08.5-.867-5.196-3.001-.5.866L7 15.015v2.984H6A2 2 0 0 0 4 20v2h16v-6.002c0-.895-.588-1.653-1.4-1.908zM19 21H5v-1a1 1 0 0 1 1-1h6.78l.5-2.001.5-2.001H18a1 1 0 0 1 1 1V21z" style="fill: #ffffff;"/></svg>
